<svg id="Layer_1" data-name="Layer 1" xmlns="http://www.w3.org/2000/svg" viewBox="0 0 695.61 218.49"><defs><style>.cls-1{fill:#6faed9;}.cls-2{fill:#fafaf8;}</style></defs><path class="cls-1" d="M-255.39,355.52H-435.84a11,11,0,0,1-3-.08,7.61,7.61,0,0,1-2.05-1.53c.73-.66,1.36-1.59,2.22-1.92a8.61,8.61,0,0,1,3-.1H-75.79a4.63,4.63,0,0,1,1.49,0c1.46.56,2.88,1.23,4.31,1.86-1.48.57-3,1.64-4.45,1.65q-61,.15-122,.1Z" transform="translate(765.6 -210.59)"/><path class="cls-2" d="M-508.42,371.17l-9.56,33h-4.83l-7.67-26.56-7.91,26.56-4.83,0-9.23-33h4.59l7.2,27.93,7.95-27.93h4.88l7.53,27.88,7.24-27.88Z" transform="translate(765.6 -210.59)"/><path class="cls-2" d="M-480.16,392.66h-20.73a8.42,8.42,0,0,0,2.58,6.06,8.22,8.22,0,0,0,5.84,2.23,8,8,0,0,0,4.67-1.3,6.9,6.9,0,0,0,2.62-3.48h4.64a11.13,11.13,0,0,1-4.16,6.08,12.6,12.6,0,0,1-7.77,2.34,13.14,13.14,0,0,1-6.6-1.65,11.78,11.78,0,0,1-4.57-4.71,14.69,14.69,0,0,1-1.66-7.08,14.89,14.89,0,0,1,1.61-7.06,11.34,11.34,0,0,1,4.52-4.66,13.49,13.49,0,0,1,6.7-1.63,12.83,12.83,0,0,1,6.51,1.61,11.36,11.36,0,0,1,4.38,4.4,12.69,12.69,0,0,1,1.56,6.3A23.29,23.29,0,0,1-480.16,392.66Zm-5.4-7.5a7.09,7.09,0,0,0-2.95-2.77,9.08,9.08,0,0,0-4.15-.95,8,8,0,0,0-5.63,2.16,8.45,8.45,0,0,0-2.56,5.94h16.38A8.32,8.32,0,0,0-485.56,385.16Z" transform="translate(765.6 -210.59)"/><path class="cls-2" d="M-474.34,384.12a11.73,11.73,0,0,1,4.43-4.67,12.19,12.19,0,0,1,6.27-1.65,11.57,11.57,0,0,1,5.92,1.46A9.78,9.78,0,0,1-454,383v-4.74h4.36v25.95H-454v-4.83a10.12,10.12,0,0,1-3.81,3.76,11.33,11.33,0,0,1-5.89,1.49,11.71,11.71,0,0,1-6.25-1.7,12,12,0,0,1-4.41-4.78,14.93,14.93,0,0,1-1.6-7A14.59,14.59,0,0,1-474.34,384.12Zm19.18,1.92a8.32,8.32,0,0,0-3.2-3.34,8.71,8.71,0,0,0-4.42-1.16,8.83,8.83,0,0,0-4.41,1.13,8.33,8.33,0,0,0-3.17,3.32,10.51,10.51,0,0,0-1.18,5.11,10.74,10.74,0,0,0,1.18,5.18,8.47,8.47,0,0,0,3.17,3.37,8.65,8.65,0,0,0,4.41,1.16,8.71,8.71,0,0,0,4.42-1.16,8.4,8.4,0,0,0,3.2-3.37,10.62,10.62,0,0,0,1.18-5.13A10.51,10.51,0,0,0-455.16,386Z" transform="translate(765.6 -210.59)"/><path class="cls-2" d="M-437.08,381.77v15.3a3.61,3.61,0,0,0,.81,2.67,3.94,3.94,0,0,0,2.79.78h3.17v3.65h-3.88a7.71,7.71,0,0,1-5.4-1.66c-1.2-1.1-1.8-2.92-1.8-5.44v-15.3h-3.36v-3.55h3.36v-6.53h4.31v6.53h6.77v3.55Z" transform="translate(765.6 -210.59)"/><path class="cls-2" d="M-406.92,379a8.88,8.88,0,0,1,3.72,3.76,12.86,12.86,0,0,1,1.35,6.11v15.29h-4.27V389.49a8.3,8.3,0,0,0-1.94-5.94,6.94,6.94,0,0,0-5.3-2.06,7.1,7.1,0,0,0-5.42,2.13q-2,2.13-2,6.2v14.35h-4.31v-35h4.31v12.79a8.48,8.48,0,0,1,3.53-3.08,11.3,11.3,0,0,1,5-1.09A11.12,11.12,0,0,1-406.92,379Z" transform="translate(765.6 -210.59)"/><path class="cls-2" d="M-371.27,392.66H-392a8.5,8.5,0,0,0,2.58,6.06,8.25,8.25,0,0,0,5.85,2.23,8,8,0,0,0,4.66-1.3,6.92,6.92,0,0,0,2.63-3.48h4.64a11.15,11.15,0,0,1-4.17,6.08,12.57,12.57,0,0,1-7.76,2.34,13.21,13.21,0,0,1-6.61-1.65,11.75,11.75,0,0,1-4.56-4.71,14.58,14.58,0,0,1-1.66-7.08,14.89,14.89,0,0,1,1.61-7.06,11.28,11.28,0,0,1,4.52-4.66,13.43,13.43,0,0,1,6.7-1.63,12.83,12.83,0,0,1,6.51,1.61,11.36,11.36,0,0,1,4.38,4.4,12.69,12.69,0,0,1,1.56,6.3C-371.13,390.9-371.18,391.75-371.27,392.66Zm-5.4-7.5a7.12,7.12,0,0,0-3-2.77,9.07,9.07,0,0,0-4.14-.95,8,8,0,0,0-5.63,2.16,8.45,8.45,0,0,0-2.56,5.94h16.38A8.32,8.32,0,0,0-376.67,385.16Z" transform="translate(765.6 -210.59)"/><path class="cls-2" d="M-357.9,379.17a9,9,0,0,1,5.14-1.42v4.45h-1.14q-7.25,0-7.24,7.86v14.11h-4.31V378.22h4.31v4.93A9.17,9.17,0,0,1-357.9,379.17Z" transform="translate(765.6 -210.59)"/><path class="cls-2" d="M-348.5,403.6a2.82,2.82,0,0,1-.85-2.08,2.84,2.84,0,0,1,.85-2.09,2.82,2.82,0,0,1,2.08-.85,2.68,2.68,0,0,1,2,.85,2.87,2.87,0,0,1,.83,2.09,2.84,2.84,0,0,1-.83,2.08,2.68,2.68,0,0,1-2,.85A2.82,2.82,0,0,1-348.5,403.6Z" transform="translate(765.6 -210.59)"/><path class="cls-2" d="M-297.8,404.17h-4.31l-17.32-26.28v26.28h-4.31V371.12h4.31l17.32,26.23V371.12h4.31Z" transform="translate(765.6 -210.59)"/><path class="cls-2" d="M-266.93,392.66h-20.74a8.5,8.5,0,0,0,2.58,6.06,8.25,8.25,0,0,0,5.85,2.23,8,8,0,0,0,4.66-1.3,6.92,6.92,0,0,0,2.63-3.48h4.64a11.15,11.15,0,0,1-4.17,6.08,12.57,12.57,0,0,1-7.76,2.34,13.21,13.21,0,0,1-6.61-1.65,11.75,11.75,0,0,1-4.56-4.71,14.58,14.58,0,0,1-1.66-7.08,14.89,14.89,0,0,1,1.61-7.06,11.28,11.28,0,0,1,4.52-4.66,13.43,13.43,0,0,1,6.7-1.63,12.83,12.83,0,0,1,6.51,1.61,11.36,11.36,0,0,1,4.38,4.4,12.69,12.69,0,0,1,1.56,6.3C-266.79,390.9-266.84,391.75-266.93,392.66Zm-5.4-7.5a7.12,7.12,0,0,0-3-2.77,9.07,9.07,0,0,0-4.14-.95,8,8,0,0,0-5.63,2.16,8.45,8.45,0,0,0-2.56,5.94h16.38A8.32,8.32,0,0,0-272.33,385.16Z" transform="translate(765.6 -210.59)"/><path class="cls-2" d="M-226.55,378.22l-8.1,25.95h-4.45l-6.25-20.6-6.24,20.6H-256l-8.15-25.95h4.41l6,21.78,6.44-21.78h4.45l6.25,21.64,5.87-21.64Z" transform="translate(765.6 -210.59)"/><path class="cls-2" d="M-218.48,403.58a9,9,0,0,1-3.71-2.85,7.47,7.47,0,0,1-1.52-4.18h4.45a4.6,4.6,0,0,0,1.82,3.31,6.78,6.78,0,0,0,4.29,1.28,6.06,6.06,0,0,0,3.9-1.12,3.54,3.54,0,0,0,1.4-2.91,2.71,2.71,0,0,0-1.52-2.53A21.05,21.05,0,0,0-214,393a35.64,35.64,0,0,1-4.69-1.52,8.14,8.14,0,0,1-3.08-2.25,5.86,5.86,0,0,1-1.27-3.95,6.58,6.58,0,0,1,1.13-3.74,7.72,7.72,0,0,1,3.29-2.7,11.87,11.87,0,0,1,5-1,10.58,10.58,0,0,1,7,2.18,7.88,7.88,0,0,1,2.84,6h-4.31a4.73,4.73,0,0,0-1.63-3.41,6,6,0,0,0-4-1.28,5.91,5.91,0,0,0-3.71,1.05,3.28,3.28,0,0,0-1.35,2.74,2.88,2.88,0,0,0,.85,2.16,5.82,5.82,0,0,0,2.08,1.27c.82.3,2,.67,3.51,1.12a33.06,33.06,0,0,1,4.54,1.49,8,8,0,0,1,2.94,2.15,5.59,5.59,0,0,1,1.23,3.79,6.77,6.77,0,0,1-1.16,3.88,7.91,7.91,0,0,1-3.29,2.7,11.69,11.69,0,0,1-5,1A13.4,13.4,0,0,1-218.48,403.58Z" transform="translate(765.6 -210.59)"/><path class="cls-2" d="M-198.29,403.6a2.82,2.82,0,0,1-.85-2.08,2.84,2.84,0,0,1,.85-2.09,2.83,2.83,0,0,1,2.09-.85,2.71,2.71,0,0,1,2,.85,2.91,2.91,0,0,1,.83,2.09,2.88,2.88,0,0,1-.83,2.08,2.71,2.71,0,0,1-2,.85A2.83,2.83,0,0,1-198.29,403.6Z" transform="translate(765.6 -210.59)"/><path class="cls-2" d="M-169.22,371.17v33h-4.31v-33Z" transform="translate(765.6 -210.59)"/><path class="cls-2" d="M-141.57,380.61q2.92,2.86,2.93,8.27v15.29h-4.26V389.49a8.35,8.35,0,0,0-1.94-5.94,7,7,0,0,0-5.3-2.06,7.09,7.09,0,0,0-5.42,2.13,8.71,8.71,0,0,0-2,6.2v14.35h-4.3V378.22h4.3v3.7a8.66,8.66,0,0,1,3.48-3.08,10.77,10.77,0,0,1,4.86-1.09A10.57,10.57,0,0,1-141.57,380.61Z" transform="translate(765.6 -210.59)"/><path class="cls-2" d="M-121,381.77h-5.44v22.4h-4.31v-22.4h-3.36v-3.55h3.36v-1.84q0-4.36,2.25-6.37t7.22-2v3.6c-1.89,0-3.23.37-4,1.11a4.92,4.92,0,0,0-1.16,3.67v1.84H-121Z" transform="translate(765.6 -210.59)"/><path class="cls-2" d="M-111.3,402.94a11.88,11.88,0,0,1-4.64-4.71,14.47,14.47,0,0,1-1.68-7.08,14,14,0,0,1,1.73-7,11.87,11.87,0,0,1,4.71-4.69,13.65,13.65,0,0,1,6.68-1.63,13.64,13.64,0,0,1,6.67,1.63,11.92,11.92,0,0,1,4.71,4.66,14,14,0,0,1,1.73,7.06,13.79,13.79,0,0,1-1.78,7.08,12.34,12.34,0,0,1-4.8,4.71,13.82,13.82,0,0,1-6.72,1.65A13.34,13.34,0,0,1-111.3,402.94Zm11-3.1A8.4,8.4,0,0,0-97,396.5a10.72,10.72,0,0,0,1.26-5.35A10.77,10.77,0,0,0-97,385.82a8.3,8.3,0,0,0-3.22-3.29,8.93,8.93,0,0,0-4.31-1.09,8.84,8.84,0,0,0-4.33,1.09,8,8,0,0,0-3.15,3.29,11.1,11.1,0,0,0-1.19,5.33,11.46,11.46,0,0,0,1.16,5.37,8.07,8.07,0,0,0,3.11,3.32,8.41,8.41,0,0,0,4.26,1.11A9,9,0,0,0-100.34,399.84Z" transform="translate(765.6 -210.59)"/><path class="cls-2" d="M-86.42,403.6a2.82,2.82,0,0,1-.85-2.08,2.84,2.84,0,0,1,.85-2.09,2.82,2.82,0,0,1,2.08-.85,2.72,2.72,0,0,1,2,.85,2.9,2.9,0,0,1,.82,2.09,2.87,2.87,0,0,1-.82,2.08,2.72,2.72,0,0,1-2,.85A2.82,2.82,0,0,1-86.42,403.6Z" transform="translate(765.6 -210.59)"/><path class="cls-1" d="M-594.54,310.93c0,8.15.15,15.46-.14,22.75-.05,1.27-1.74,3-3.08,3.59-12,5.3-23.16,11.68-32.13,21.44-1.68,1.83-3.26,3.75-5.81,6.7,7.47-4.4,13.54-8.44,20-11.65s13.38-5.58,21.2-8.76c0,9.31.06,17.38-.1,25.45,0,.75-1.31,1.82-2.22,2.15a128.26,128.26,0,0,0-54.48,37,26.37,26.37,0,0,1-.56-3.42c0-18.32,0-36.64.11-55,0-2,.34-4.61,1.59-6C-635,328.92-616.53,318-594.54,310.93Zm-19.85,51.51c.47,5.31,2.59,7.53,6.17,7.5,3.42,0,5.46-2.34,5.41-5.83s-2.53-5.91-5.66-5.53C-610.79,358.86-612.83,361.36-614.39,362.44Z" transform="translate(765.6 -210.59)"/><path class="cls-1" d="M-575.18,387.79c-29.35,7.48-56.33,18.86-77.37,41.29-6.1-5.11-12-10.73-18.54-15.4-16.71-11.93-35.44-19.57-55.32-24.43-3.29-.81-4.7-2-4.48-5.62.35-5.44.09-10.91.09-16.66h9.54c.23.54.51.87.46,1.14-2.09,10,2.94,13.54,12.07,16.39,20.66,6.45,38.8,18,55.35,31.41,9.29-6.24,18.06-13.24,27.81-18.37,11.85-6.22,24.48-11,36.9-16.06,2.75-1.12,3.87-2.12,3.85-5.18-.16-17.66-.1-35.31-.1-53,0-9.8,0-9.8,9.74-14.55Z" transform="translate(765.6 -210.59)"/><path class="cls-1" d="M-659.68,296.3h20.76l-24.87,34.87-.74-.15c2.34-8.12,4.69-16.23,7.14-24.68H-677.8c2.14-7.52,3.94-14.72,6.28-21.75,1.69-5.07,1.06-8.39-3.9-11.49-18-11.32-35.78-23.13-53.76-34.56-1.24-.79-3.6-.29-5.29.16-4.44,1.18-8.69,1.2-12.2-2.06a10.93,10.93,0,0,1-3-11.52,10.18,10.18,0,0,1,8.58-7.44,11.11,11.11,0,0,1,12.86,10.76c.11,3.06,1.38,4.37,3.61,5.79q28,17.85,55.86,35.85c.21-.15.55-.27.69-.5,1.32-2.18,2.39-6.05,3.94-6.25,5.19-.67,10.55,0,15.84.12,1.15,0,2.55.5,3.41,0,13.23-7.36,26.43-14.78,39.51-22.4a7,7,0,0,0,2.64-4.4c.88-4.68,4.16-8.59,8.62-9.15a10.15,10.15,0,0,1,10.84,5.53c2.28,4.13,1.53,8.11-1.46,11.57s-7.74,4-12.34,2.16a6.91,6.91,0,0,0-5.21,0C-617.67,255.27-633,264-648.34,272.7a5,5,0,0,0-2.13,2C-653.52,281.63-656.44,288.65-659.68,296.3Zm-79.78-74a6.37,6.37,0,0,0-5.9,6.65,6.11,6.11,0,0,0,6.54,5.94c3.51-.35,5.85-2.14,5.89-6A6.4,6.4,0,0,0-739.46,222.29Z" transform="translate(765.6 -210.59)"/><path class="cls-1" d="M-230.51,278.83l-10.94,8.39c-12.84-11.92-24.33-13.19-33.06-3.77-8.27,8.91-8,24.93.59,33.16,9.48,9.1,21.08,7.68,32.66-4.09l11.37,7c-6.19,13.78-23.33,19-34.32,17.21-18.37-3-32.05-17.54-32.77-34.34-.82-18.88,9.48-33.51,26.9-38.24C-254,259.83-237.28,266-230.51,278.83Z" transform="translate(765.6 -210.59)"/><path class="cls-1" d="M-188.14,303.29c.48-6.56-2.29-10.34-8.29-10-6.34.36-12.62,2-19.5,3.13l-3.79-9.46c10.93-5.07,22-7.85,33.81-4.54,8.26,2.32,12.75,8.08,13.29,16.71.32,5.14,0,10.32.2,15.47.16,3.21-.56,6.24,2.11,9.58,1.85,2.31.36,7.29.36,11-10.27,2.46-14.59,1-17.39-5.87-6.31,6.31-13.69,9-22.51,7.07-8.19-1.82-12.77-6.85-13.48-15.08-.63-7.33,3-13.63,10.7-16,5.27-1.66,11-1.79,16.62-2.31A54.7,54.7,0,0,1-188.14,303.29Zm-.38,8.07c-4.76.26-9.92-.07-14.71,1.09-2.18.52-5.22,4.15-5,6.1.22,2.38,3,5.51,5.43,6.5C-196.26,327.74-185.33,323.44-188.52,311.36Z" transform="translate(765.6 -210.59)"/><path class="cls-1" d="M-116,286.45l-5.45,9.79c-5.6-1.39-11-3-16.44-4-2.94-.54-6.86-.27-7,3.57,0,1.79,3,4.39,5.2,5.35,4.38,1.91,9.21,2.76,13.74,4.38,6.91,2.47,10.45,7.41,10.61,14.19a15.05,15.05,0,0,1-10.07,14.66c-13.29,4.83-25.69,2.11-37.73-5l5.58-9.4c6.42,1.94,12.34,3.84,18.33,5.47a7.58,7.58,0,0,0,4.9-.25c1.61-.79,3.48-2.34,3.84-3.89.27-1.16-1.36-3.6-2.68-4.13a119.45,119.45,0,0,0-12.82-3.93c-10.4-2.88-14.55-7.78-13.87-16.5.66-8.42,7.17-14.47,16.75-15.6S-124.59,282-116,286.45Z" transform="translate(765.6 -210.59)"/><path class="cls-1" d="M-101,294.15l-8.07-.46V282.3l7.59-.51V266.56h15.32v15.16H-73v12.19H-85.85c0,8.51-.31,16.48.12,24.41.22,4.08,3.58,5.35,7.36,4.68a38.37,38.37,0,0,0,5.54-1.89c.68,3.42,1.51,6.61,1.87,9.86a3.52,3.52,0,0,1-1.84,2.83c-3.94,1.24-8,2.77-12,3-10,.5-15.75-4.84-16.16-14.84C-101.33,312.8-101,303.65-101,294.15Z" transform="translate(765.6 -210.59)"/><path class="cls-1" d="M-749.35,264.57a7.85,7.85,0,0,1-8.46,7.87,7.89,7.89,0,0,1-7.79-8.09,8.16,8.16,0,0,1,8.31-8.18C-752.69,256.15-749.29,259.75-749.35,264.57Z" transform="translate(765.6 -210.59)"/><path class="cls-1" d="M-721.19,333.56c-2.38-.5-4.64-.59-6.5-1.51-1.3-.63-2.82-2.36-2.88-3.67-.3-6.29-.13-12.61-.13-19C-721,312.56-719.22,317-721.19,333.56Z" transform="translate(765.6 -210.59)"/><path class="cls-1" d="M-612.78,218.93c0,4.73-3.09,7.84-7.74,7.84a8.25,8.25,0,0,1-8.22-8.25,8.16,8.16,0,0,1,8-7.93C-616.17,210.56-612.76,214.14-612.78,218.93Z" transform="translate(765.6 -210.59)"/><path class="cls-1" d="M-526.91,351.89c7.32,0,14.65-.1,22,.09,1.24,0,2.45,1.28,3.67,2-1.19.53-2.37,1.51-3.56,1.52-14.82.09-29.63.1-44.44,0-1.22,0-2.43-1.25-3.64-1.93,1.17-.54,2.34-1.52,3.53-1.54,7.49-.14,15-.07,22.47-.07Z" transform="translate(765.6 -210.59)"/><path class="cls-2" d="M-717.55,250.4c5.33,3.23,9.93,5.88,14.36,8.78,1,.65,2.08,2.34,1.9,3.33-.72,4.06-2.3,8-2.83,12.05-.51,3.88-.11,7.89-.11,12.43-4.38,0-8.5-.18-12.6,0-10.62.53-20.88,8-24.14,17.39a26,26,0,0,0,7,27.86A22.68,22.68,0,0,0-715,338c8-1.07,13.21,1.85,16.79,9,1.69,3.35,4.34,6.23,7.24,10.28h-5.8l-20.47.07c-24,.06-41.76-15.11-44.79-38.17-3-22.67,10.66-43,33.11-49.1,3.54-.95,5.58-2.18,6.43-6.13C-721.56,259.47-719.4,255.27-717.55,250.4Z" transform="translate(765.6 -210.59)"/><path class="cls-2" d="M-493.76,268.24c-2.36,4.47-4.51,8.55-6.77,12.85-3.82-1.55-7.36-3.45-11.15-4.38-4.29-1-8.85-1.9-13.18-1.53-2.3.2-5.72,2.89-6.14,5s1.74,5.34,3.68,7.08,4.81,2.06,7.33,2.87c5.06,1.64,10.26,2.9,15.2,4.82,7.71,3,11.94,8.71,12,17.21.09,8.86-3.64,15.42-11.64,19.33-13.21,6.46-36.55,2.53-47.31-7.89l7.05-11.5c4,2.09,7.79,4.79,12,6a57.16,57.16,0,0,0,16.49,2.52c2.35,0,5.76-2.9,6.76-5.29,1.43-3.46-1.23-6.43-4.6-7.74-3.85-1.5-7.92-2.44-11.89-3.64-3-.92-6.06-1.77-9-2.81-8.09-2.84-12.57-8.42-12.65-17.17-.09-9.12,3.25-16.48,11.91-20.17C-521.15,257.59-507.48,261.27-493.76,268.24Z" transform="translate(765.6 -210.59)"/><path class="cls-2" d="M-430.14,279.44c-8.08,21-15.54,41.3-23.69,61.3-5.94,14.59-16.38,18.41-31.69,12.15,1-3.81,2.09-7.71,3.24-12,1.71.44,3.17,1.27,4.46,1.06,2.92-.49,6.28-.79,8.49-2.45,2.8-2.1,2.91-5.47,1.4-9-6.62-15.78-13-31.66-19.44-47.51a30.61,30.61,0,0,1-.88-3.35c4.84,0,9.35-.3,13.76.18,1.34.15,3,2.27,3.55,3.83,3.76,10.12,7.27,20.34,10.89,30.51.32.9.82,1.74,1.56,3.29,3.24-9.95,6.27-19.22,9.28-28.5,3.1-9.58,3.09-9.58,13-9.5C-434.37,279.45-432.57,279.44-430.14,279.44Z" transform="translate(765.6 -210.59)"/><path class="cls-2" d="M-332,334.74c-16.1-.12-28.87-12.34-28.85-27.6,0-16.58,12.5-28.71,29.35-28.55,16.47.15,29.13,12.6,29.05,28.56C-302.49,322.43-315.8,334.86-332,334.74Zm-13.16-27.69c.08,8.33,6.06,14.68,13.81,14.65,7.42,0,13.23-6.69,13.25-15.21,0-8.31-6-14.85-13.58-14.77C-339.59,291.8-345.21,298.2-345.13,307.05Z" transform="translate(765.6 -210.59)"/><path class="cls-2" d="M-370.95,333.48H-386V318.66c0-5.17,0-10.33,0-15.49-.1-7.06-3.1-10.54-9.09-10.69-6.64-.17-11.78,4.21-12,10.73-.24,8.16-.06,16.32-.06,24.48v5.72h-15.21V280h14.15c.16,2.3.33,4.71.54,7.67a15.89,15.89,0,0,0,2.22-1.77c6.27-7.32,14.38-8.64,23.15-6.52a14,14,0,0,1,11.25,13.69C-370.59,306.33-370.95,319.63-370.95,333.48Z" transform="translate(765.6 -210.59)"/><path class="cls-2" d="M-708.86,309.78a119.41,119.41,0,0,1,40,20c16,12.33,15.94,12.42,15.92,32.55v28.18c-1.06-1.81-1.61-2.6-2-3.46-5.9-12.69-12.58-24.68-26.73-30a4.06,4.06,0,0,1-1.73-1.59c-3.26-5-6.47-10-10.21-15.77,13.06,2.91,23.39,8.67,31.23,18.65-8.69-20.29-24.58-28.79-46.5-27.65Z" transform="translate(765.6 -210.59)"/><path class="cls-2" d="M-622.89,242.06l-17,10c-3.31-2.36-6.33-5-9.74-6.87-11.13-6.23-22.56-6.3-33.86-.53-2.93,1.5-5.05,1.36-7.65-.47-4.32-3-8.85-5.75-13.36-8.64C-685.81,215.92-644.58,214.38-622.89,242.06Z" transform="translate(765.6 -210.59)"/><path class="cls-2" d="M-630.6,268.38l17.65-9.28c-.22,5.83,4.14,6.39,7.87,8.12,13.21,6.09,21.69,16,23.81,31.13l-19,5.7c-1-7.14-3.12-14-9.76-17.09-6-2.74-12.7-3.77-19.71-5.72C-629.94,277.94-630.25,273.36-630.6,268.38Z" transform="translate(765.6 -210.59)"/><path class="cls-2" d="M-708.72,364.62c8.12,0,15.9-.14,23.68.11a10.57,10.57,0,0,1,5.37,2.23c12,8.66,17.71,21.34,22.41,34.75a125.38,125.38,0,0,0-42.4-28.24q-2.77-1.12-5.56-2.16C-709.11,369.86-709.11,369.87-708.72,364.62Z" transform="translate(765.6 -210.59)"/></svg>