<svg id="Layer_1" data-name="Layer 1" xmlns="http://www.w3.org/2000/svg" viewBox="0 0 190.41 218.49"><defs><style>.cls-1{fill:#6faed9;}.cls-2{fill:#fafaf8;}</style></defs><path class="cls-1" d="M-594.54,310.93c0,8.15.15,15.46-.14,22.75-.05,1.27-1.74,3-3.08,3.59-12,5.3-23.16,11.68-32.13,21.44-1.68,1.83-3.26,3.75-5.81,6.7,7.47-4.4,13.54-8.44,20-11.65s13.38-5.58,21.2-8.76c0,9.31.06,17.38-.1,25.45,0,.75-1.31,1.82-2.22,2.15a128.26,128.26,0,0,0-54.48,37,26.37,26.37,0,0,1-.56-3.42c0-18.32,0-36.64.11-55,0-2,.34-4.61,1.59-6C-635,328.92-616.53,318-594.54,310.93Zm-19.85,51.51c.47,5.31,2.59,7.53,6.17,7.5,3.42,0,5.46-2.34,5.41-5.83s-2.53-5.91-5.66-5.53C-610.79,358.86-612.83,361.36-614.39,362.44Z" transform="translate(765.6 -210.59)"/><path class="cls-1" d="M-575.18,387.79c-29.35,7.48-56.33,18.86-77.37,41.29-6.1-5.11-12-10.73-18.54-15.4-16.71-11.93-35.44-19.57-55.32-24.43-3.29-.81-4.7-2-4.48-5.62.35-5.44.09-10.91.09-16.66h9.54c.23.54.51.87.46,1.14-2.09,10,2.94,13.54,12.07,16.39,20.66,6.45,38.8,18,55.35,31.41,9.29-6.24,18.06-13.24,27.81-18.37,11.85-6.22,24.48-11,36.9-16.06,2.75-1.12,3.87-2.12,3.85-5.18-.16-17.66-.1-35.31-.1-53,0-9.8,0-9.8,9.74-14.55Z" transform="translate(765.6 -210.59)"/><path class="cls-1" d="M-659.68,296.3h20.76l-24.87,34.87-.74-.15c2.34-8.12,4.69-16.23,7.14-24.68H-677.8c2.14-7.52,3.94-14.72,6.28-21.75,1.69-5.07,1.06-8.39-3.9-11.49-18-11.32-35.78-23.13-53.76-34.56-1.24-.79-3.6-.29-5.29.16-4.44,1.18-8.69,1.2-12.2-2.06a10.93,10.93,0,0,1-3-11.52,10.18,10.18,0,0,1,8.58-7.44,11.11,11.11,0,0,1,12.86,10.76c.11,3.06,1.38,4.37,3.61,5.79q28,17.85,55.86,35.85c.21-.15.55-.27.69-.5,1.32-2.18,2.39-6.05,3.94-6.25,5.19-.67,10.55,0,15.84.12,1.15,0,2.55.5,3.41,0,13.23-7.36,26.43-14.78,39.51-22.4a7,7,0,0,0,2.64-4.4c.88-4.68,4.16-8.59,8.62-9.15a10.15,10.15,0,0,1,10.84,5.53c2.28,4.13,1.53,8.11-1.46,11.57s-7.74,4-12.34,2.16a6.91,6.91,0,0,0-5.21,0C-617.67,255.27-633,264-648.34,272.7a5,5,0,0,0-2.13,2C-653.52,281.63-656.44,288.65-659.68,296.3Zm-79.78-74a6.37,6.37,0,0,0-5.9,6.65,6.11,6.11,0,0,0,6.54,5.94c3.51-.35,5.85-2.14,5.89-6A6.4,6.4,0,0,0-739.46,222.29Z" transform="translate(765.6 -210.59)"/><path class="cls-1" d="M-749.35,264.57a7.85,7.85,0,0,1-8.46,7.87,7.89,7.89,0,0,1-7.79-8.09,8.16,8.16,0,0,1,8.31-8.18C-752.69,256.15-749.29,259.75-749.35,264.57Z" transform="translate(765.6 -210.59)"/><path class="cls-1" d="M-721.19,333.56c-2.38-.5-4.64-.59-6.5-1.51-1.3-.63-2.82-2.36-2.88-3.67-.3-6.29-.13-12.61-.13-19C-721,312.56-719.22,317-721.19,333.56Z" transform="translate(765.6 -210.59)"/><path class="cls-1" d="M-612.78,218.93c0,4.73-3.09,7.84-7.74,7.84a8.25,8.25,0,0,1-8.22-8.25,8.16,8.16,0,0,1,8-7.93C-616.17,210.56-612.76,214.14-612.78,218.93Z" transform="translate(765.6 -210.59)"/><path class="cls-2" d="M-717.55,250.4c5.33,3.23,9.93,5.88,14.36,8.78,1,.65,2.08,2.34,1.9,3.33-.72,4.06-2.3,8-2.83,12.05-.51,3.88-.11,7.89-.11,12.43-4.38,0-8.5-.18-12.6,0-10.62.53-20.88,8-24.14,17.39a26,26,0,0,0,7,27.86A22.68,22.68,0,0,0-715,338c8-1.07,13.21,1.85,16.79,9,1.69,3.35,4.34,6.23,7.24,10.28h-5.8l-20.47.07c-24,.06-41.76-15.11-44.79-38.17-3-22.67,10.66-43,33.11-49.1,3.54-.95,5.58-2.18,6.43-6.13C-721.56,259.47-719.4,255.27-717.55,250.4Z" transform="translate(765.6 -210.59)"/><path class="cls-2" d="M-708.86,309.78a119.41,119.41,0,0,1,40,20c16,12.33,15.94,12.42,15.92,32.55v28.18c-1.06-1.81-1.61-2.6-2-3.46-5.9-12.69-12.58-24.68-26.73-30a4.06,4.06,0,0,1-1.73-1.59c-3.26-5-6.47-10-10.21-15.77,13.06,2.91,23.39,8.67,31.23,18.65-8.69-20.29-24.58-28.79-46.5-27.65Z" transform="translate(765.6 -210.59)"/><path class="cls-2" d="M-622.89,242.06l-17,10c-3.31-2.36-6.33-5-9.74-6.87-11.13-6.23-22.56-6.3-33.86-.53-2.93,1.5-5.05,1.36-7.65-.47-4.32-3-8.85-5.75-13.36-8.64C-685.81,215.92-644.58,214.38-622.89,242.06Z" transform="translate(765.6 -210.59)"/><path class="cls-2" d="M-630.6,268.38l17.65-9.28c-.22,5.83,4.14,6.39,7.87,8.12,13.21,6.09,21.69,16,23.81,31.13l-19,5.7c-1-7.14-3.12-14-9.76-17.09-6-2.74-12.7-3.77-19.71-5.72C-629.94,277.94-630.25,273.36-630.6,268.38Z" transform="translate(765.6 -210.59)"/><path class="cls-2" d="M-708.72,364.62c8.12,0,15.9-.14,23.68.11a10.57,10.57,0,0,1,5.37,2.23c12,8.66,17.71,21.34,22.41,34.75a125.38,125.38,0,0,0-42.4-28.24q-2.77-1.12-5.56-2.16C-709.11,369.86-709.11,369.87-708.72,364.62Z" transform="translate(765.6 -210.59)"/></svg>