<svg id="Layer_1" data-name="Layer 1" xmlns="http://www.w3.org/2000/svg" viewBox="0 0 190.41 218.49"><defs><style>.cls-1{fill:#898a8b;}.cls-2{fill:#53256f;}</style></defs><path class="cls-1" d="M192.33,319.83c0,8.16.15,15.47-.14,22.76-.05,1.26-1.74,3-3.08,3.58-12,5.31-23.16,11.69-32.13,21.44-1.68,1.83-3.26,3.75-5.82,6.7,7.48-4.39,13.55-8.44,20-11.64s13.38-5.58,21.2-8.77c0,9.32.06,17.39-.1,25.45,0,.75-1.31,1.83-2.22,2.15a128.28,128.28,0,0,0-54.48,37.06,26.45,26.45,0,0,1-.56-3.43c0-18.32,0-36.64.11-55,0-2,.34-4.61,1.59-6C151.83,337.82,170.34,326.86,192.33,319.83Zm-19.85,51.51c.46,5.31,2.59,7.54,6.17,7.5,3.42,0,5.46-2.34,5.41-5.82s-2.53-5.92-5.66-5.54C176.08,367.76,174,370.26,172.48,371.34Z" transform="translate(-21.27 -219.5)"/><path class="cls-2" d="M67.5,261.58c5.32,3.22,9.92,5.87,14.35,8.78,1,.64,2.08,2.33,1.91,3.32-.73,4.06-2.31,8-2.84,12.05-.51,3.89-.11,7.89-.11,12.43-4.38,0-8.5-.17-12.6,0-10.62.54-20.88,8-24.13,17.39a26,26,0,0,0,7,27.87,22.7,22.7,0,0,0,19,5.75c8-1.07,13.21,1.85,16.78,8.95,1.69,3.35,4.34,6.23,7.24,10.28h-5.8l-20.47.07c-24,.06-41.76-15.1-44.79-38.17-3-22.67,10.66-43,33.11-49.09,3.54-1,5.59-2.19,6.43-6.13C63.48,270.65,65.65,266.45,67.5,261.58Z" transform="translate(-21.27 -219.5)"/><path class="cls-1" d="M211.69,396.69c-29.35,7.48-56.33,18.86-77.37,41.29-6.1-5.11-12-10.73-18.54-15.4C99.07,410.66,80.34,403,60.46,398.15c-3.29-.8-4.7-2-4.48-5.62.35-5.43.09-10.91.09-16.66h9.54c.23.55.51.88.46,1.14C64,387,69,390.56,78.14,393.41c20.66,6.44,38.8,18,55.35,31.4,9.29-6.23,18.06-13.24,27.81-18.36,11.85-6.23,24.48-11,36.9-16.07,2.75-1.12,3.87-2.12,3.85-5.18-.16-17.65-.1-35.31-.1-53,0-9.8,0-9.8,9.74-14.55Z" transform="translate(-21.27 -219.5)"/><path class="cls-1" d="M127.19,305.2H148l-24.87,34.88-.74-.16c2.34-8.12,4.69-16.23,7.13-24.68h-20.4c2.14-7.51,3.94-14.72,6.28-21.74,1.69-5.08,1.06-8.4-3.9-11.5-18-11.31-35.78-23.12-53.76-34.55-1.24-.79-3.6-.29-5.29.16-4.45,1.17-8.69,1.19-12.2-2.07a10.89,10.89,0,0,1-3-11.51,10.19,10.19,0,0,1,8.58-7.45,11.12,11.12,0,0,1,12.86,10.76c.11,3.06,1.38,4.37,3.61,5.8Q90.26,261,118.16,279c.21-.15.55-.26.69-.5,1.32-2.17,2.39-6.05,3.94-6.25,5.19-.67,10.55,0,15.84.12,1.15,0,2.55.51,3.41,0,13.23-7.37,26.43-14.79,39.51-22.41a7,7,0,0,0,2.64-4.4c.88-4.68,4.16-8.59,8.62-9.15A10.15,10.15,0,0,1,203.65,242c2.28,4.12,1.53,8.1-1.46,11.56s-7.74,4-12.34,2.17a6.91,6.91,0,0,0-5.21,0c-15.44,8.52-30.77,17.24-46.11,26a4.94,4.94,0,0,0-2.13,1.95C133.35,290.53,130.43,297.55,127.19,305.2Zm-79.78-74a6.38,6.38,0,0,0-5.9,6.66,6.12,6.12,0,0,0,6.54,5.94c3.51-.36,5.85-2.15,5.88-6A6.39,6.39,0,0,0,47.41,231.19Z" transform="translate(-21.27 -219.5)"/><path class="cls-2" d="M76.18,321a119.41,119.41,0,0,1,40,20c16,12.34,15.94,12.42,15.93,32.55,0,9,0,18,0,28.18-1.07-1.81-1.62-2.6-2-3.46-5.9-12.69-12.58-24.67-26.73-30a4.16,4.16,0,0,1-1.73-1.58c-3.26-5-6.47-10-10.21-15.78,13.06,2.92,23.39,8.67,31.24,18.65C114,349.19,98.1,340.68,76.18,341.82Z" transform="translate(-21.27 -219.5)"/><path class="cls-2" d="M162.16,253.23l-17,10c-3.31-2.36-6.33-5-9.74-6.87-11.13-6.23-22.56-6.29-33.86-.52-2.92,1.49-5.05,1.35-7.65-.48-4.31-3-8.85-5.75-13.36-8.64C99.24,227.09,140.46,225.55,162.16,253.23Z" transform="translate(-21.27 -219.5)"/><path class="cls-2" d="M154.44,279.55l17.65-9.28c-.22,5.83,4.14,6.4,7.87,8.12,13.21,6.09,21.69,16,23.81,31.13l-19,5.71c-1-7.14-3.11-14-9.76-17.1-5.95-2.74-12.7-3.77-19.71-5.72C155.1,289.11,154.79,284.54,154.44,279.55Z" transform="translate(-21.27 -219.5)"/><path class="cls-2" d="M76.33,375.8c8.11,0,15.9-.14,23.67.1a10.61,10.61,0,0,1,5.38,2.23c12,8.66,17.7,21.35,22.41,34.75a125.66,125.66,0,0,0-42.41-28.24c-1.84-.74-3.7-1.46-5.56-2.16C75.93,381,75.93,381.05,76.33,375.8Z" transform="translate(-21.27 -219.5)"/><path class="cls-1" d="M37.52,273.48a7.84,7.84,0,0,1-8.46,7.86,7.89,7.89,0,0,1-7.79-8.09,8.15,8.15,0,0,1,8.31-8.17C34.18,265.05,37.58,268.65,37.52,273.48Z" transform="translate(-21.27 -219.5)"/><path class="cls-1" d="M65.68,342.46c-2.38-.5-4.64-.59-6.5-1.5-1.3-.64-2.82-2.37-2.88-3.67-.3-6.3-.13-12.61-.13-19C65.88,321.46,67.65,325.87,65.68,342.46Z" transform="translate(-21.27 -219.5)"/><path class="cls-1" d="M174.09,227.84c0,4.72-3.09,7.84-7.74,7.83a8.26,8.26,0,0,1-8.23-8.24,8.17,8.17,0,0,1,8-7.93C170.69,219.47,174.11,223.05,174.09,227.84Z" transform="translate(-21.27 -219.5)"/></svg>